<svg width="36" height="30" viewBox="0 0 36 30" fill="none" xmlns="http://www.w3.org/2000/svg">
<path d="M0.868927 17.4727L5.61638 20.245C5.61638 20.245 12.286 17.4876 14.2416 17.5017C14.4501 17.4761 14.6624 17.485 14.8695 17.5312L22.3337 19.1989C23.3007 19.4149 23.9544 20.3427 23.7704 21.3062C23.5773 22.3177 22.5774 22.9609 21.5707 22.7362L18.7998 22.1171L15.7419 21.4244C15.1757 21.2965 14.6121 21.646 14.4824 22.2058C14.3528 22.7655 14.7065 23.3232 15.2724 23.4515L24.1657 25.4066C24.2446 25.4245 24.3236 25.428 24.4013 25.428H24.402C24.402 25.428 24.5704 25.4358 24.7124 25.3889L33.0742 22.2525C33.8813 21.9558 34.7814 22.3775 35.0553 23.1932C35.3162 23.9702 34.8799 24.8099 34.104 25.0953L25.5205 29.1614C25.2146 29.2853 24.8887 29.3516 24.5582 29.3567C22.3936 29.3905 13.9114 29.5194 13.3701 29.4715C12.7389 29.415 6.17317 27.7952 6.17317 27.7952L0.868927 26.9097" stroke="white" stroke-miterlimit="10" stroke-linecap="round" stroke-linejoin="round"/>
<path d="M20.973 12.5034C20.9616 12.4815 20.9441 12.4651 20.9356 12.4411C19.8242 9.35018 19.9394 6.77864 21.278 4.79801C23.8552 0.985898 30.2386 0.534921 32.8636 0.518066C32.8646 0.518066 32.8656 0.518066 32.8666 0.518066C33.0964 0.518066 33.2977 0.679969 33.3511 0.909799C33.4054 1.14065 33.2967 1.37967 33.0894 1.48642C33.0809 1.49101 31.3715 2.51095 31.3715 7.15811C31.3715 9.04731 30.8232 10.5259 29.7417 11.553C28.3806 12.8456 26.4145 13.1843 24.7289 13.1843C24.3611 13.1843 24.0072 13.1684 23.6758 13.1424C22.7852 13.0724 22.2868 12.7757 22.2868 12.7757M20.973 12.5034C21.584 10.7658 23.4996 6.79191 26.2739 4.79801M20.973 12.5034C20.746 13.0793 20.5208 14.3828 20.3687 15.3978M20.18 16.7661C20.1817 16.758 20.2547 16.159 20.3687 15.3978M20.3687 15.3978C20.3308 15.1572 20.0979 14.56 19.5039 13.6138M16.1231 9.75378C17.6445 10.2669 19.1128 12.9908 19.5039 13.6138M19.5039 13.6138C20.011 13.0113 20.721 11.3957 19.5039 9.75378C17.9826 7.7014 13.2495 7.18831 12.7424 7.01728C12.2353 6.84624 12.0662 7.18831 12.2353 7.35934C12.4043 7.53037 13.8625 9.43427 14.0947 10.6089C14.4328 12.3193 15.7851 14.0296 17.4754 14.0296C18.8277 14.0296 18.8277 13.6875 18.8277 13.6875" stroke="white" stroke-linecap="round" stroke-linejoin="round"/>
</svg>
