<svg width="34" height="34" viewBox="0 0 34 34" fill="none" xmlns="http://www.w3.org/2000/svg">
<path d="M6.15358 13.4697L6.15358 13.4696C6.47867 11.7755 6.76674 10.6436 7.51358 9.89677C8.2604 9.14996 9.3923 8.86188 11.0863 8.53681C11.1042 8.53337 11.1169 8.51786 11.1169 8.5L6.15358 13.4697ZM6.15358 13.4697C6.15019 13.4873 6.13477 13.5 6.11691 13.5C6.09887 13.5 6.0835 13.4872 6.08013 13.4697M6.15358 13.4697H6.08013M6.15358 3.53037C6.47867 5.22445 6.76674 6.3564 7.51358 7.10323C8.26042 7.85006 9.39238 8.13814 11.0865 8.46322L1.14722 8.53678C1.12963 8.53337 1.11685 8.51782 1.11685 8.5C1.11685 8.4823 1.12941 8.46676 1.14722 8.46322C2.84137 8.13814 3.97336 7.85007 4.7202 7.10323C5.46705 6.35639 5.75509 5.22446 6.08012 3.53039M6.15358 3.53037L6.64462 3.43614L6.15358 3.53037ZM6.15358 3.53037C6.15019 3.51272 6.13468 3.5 6.11691 3.5C6.09896 3.5 6.0835 3.51279 6.08012 3.53039M6.08012 3.53039L5.58908 3.43614L6.08012 3.53039ZM6.08013 13.4697C5.75509 11.7755 5.46702 10.6435 4.72015 9.89672M6.08013 13.4697L4.72015 9.89672M4.72015 9.89672C3.97331 9.14991 2.84133 8.86187 1.14728 8.53679L4.72015 9.89672Z" stroke="white"/>
<path d="M27.7038 6.23622C27.6324 5.89845 27.5588 5.60287 27.4709 5.34717C27.3446 4.97965 27.1794 4.66457 26.9218 4.40702C26.6642 4.14946 26.3492 3.98418 25.9816 3.8579C25.7259 3.77002 25.4302 3.69638 25.0923 3.62499C25.4302 3.55359 25.7259 3.47996 25.9816 3.39208C26.3492 3.2658 26.6642 3.10052 26.9218 2.84296C27.1794 2.5854 27.3446 2.27033 27.4709 1.90281C27.5588 1.64711 27.6324 1.35152 27.7038 1.01375C27.7752 1.35152 27.8488 1.6471 27.9367 1.9028C28.0629 2.27033 28.2282 2.58541 28.4858 2.84297C28.7433 3.10052 29.0584 3.2658 29.426 3.39208C29.6817 3.47996 29.9774 3.55359 30.3153 3.62499C29.9774 3.69638 29.6817 3.77001 29.426 3.85789C29.0584 3.98415 28.7434 4.14942 28.4858 4.40698C28.2282 4.66453 28.0629 4.97961 27.9367 5.34715C27.8488 5.60285 27.7752 5.89844 27.7038 6.23622Z" stroke="white"/>
<path d="M28.0951 32.5076C27.9353 31.9134 27.7298 31.4455 27.3772 31.0929C27.0246 30.7403 26.5566 30.5348 25.9624 30.375C26.5566 30.2152 27.0246 30.0097 27.3772 29.6571C27.7298 29.3045 27.9353 28.8366 28.0951 28.2424C28.255 28.8366 28.4604 29.3045 28.813 29.6571C29.1657 30.0097 29.6336 30.2152 30.2278 30.375C29.6336 30.5348 29.1656 30.7403 28.813 31.0929C28.4604 31.4455 28.2549 31.9134 28.0951 32.5076ZM28.0951 27.1655L27.8311 27.1149L28.0951 27.1655Z" stroke="white"/>
<path d="M6.42663 16.973H4.77446C2.56532 16.973 0.77446 18.7638 0.77446 20.973V22.1904M6.42663 16.973H8.50922C8.85409 16.973 9.19311 16.8838 9.49334 16.7141L17.4693 12.2059C18.3597 11.7027 19.4888 11.9633 20.2736 12.6192C21.3288 13.501 22.8725 14.3643 24.6875 14.3643C26.3167 14.3643 28.0253 13.6688 29.3946 12.8886C30.5599 12.2246 32.1479 12.6343 32.5136 13.9248V13.9248M6.42663 16.973V16.973C6.42663 18.4137 7.59459 19.5817 9.03533 19.5817H15.9919C16.9523 19.5817 17.731 20.3603 17.731 21.3208V21.3208M0.77446 22.1904V22.1904C0.77446 23.8712 2.13707 25.2338 3.81794 25.2338H31.3832C32.4877 25.2338 33.3832 24.3388 33.3832 23.2342C33.3832 22.5517 33.3832 21.7534 33.3832 20.886M0.77446 22.1904H13.6199C13.7516 22.1904 13.883 22.1774 14.0121 22.1515L20.1455 20.9249C20.2746 20.899 20.406 20.886 20.5377 20.886H33.3832M33.3832 20.886C33.3832 20.3306 33.3832 19.7468 33.3832 19.1469C33.3832 17.4858 32.97 15.5354 32.5136 13.9248M16.7276 12.6251C17.3073 13.9295 19.8179 16.973 24.6875 16.973C29.5571 16.973 31.9339 14.9409 32.5136 13.9248M9.90489 14.7991L11.2092 16.973M11.644 13.9295L12.9484 16.1034M13.3832 12.6251L14.6875 14.7991" stroke="white" stroke-linecap="round"/>
</svg>
