<svg width="29" height="31" viewBox="0 0 29 31" fill="none" xmlns="http://www.w3.org/2000/svg">
<path d="M14.5 3C7.04416 3 1 9.04416 1 16.5C1 23.9558 7.04416 30 14.5 30C21.9558 30 28 23.9558 28 16.5C28 14.4591 27.5471 12.524 26.7364 10.7897M14.5 3V1M14.5 3C15.5311 3 16.5352 3.11559 17.5 3.33452M14.5 1H12M14.5 1H17M5 6.90834L3.5 5.5M14.5 5V7M2.5 16.5H4.5M26 16.5H24M14.5 28V26M14.5 9V16.5L10.5 20.5" stroke="white" stroke-linecap="round" stroke-linejoin="round"/>
<circle cx="22.5" cy="6.5" r="6" stroke="white"/>
<path d="M21.7384 4.85242L21.0054 4.66734L21.2867 2H24.0694V2.79476H22.0475L21.9155 4.02863C21.9873 3.98266 22.0915 3.93669 22.2282 3.89073C22.3671 3.84234 22.5235 3.81815 22.6972 3.81815C22.938 3.81815 23.1534 3.85927 23.3433 3.94153C23.5332 4.02137 23.6942 4.1375 23.8262 4.28992C23.9605 4.44234 24.0613 4.62863 24.1284 4.84879C24.1979 5.06653 24.2326 5.31331 24.2326 5.58911C24.2326 5.83105 24.1979 6.05847 24.1284 6.27137C24.0613 6.48185 23.9582 6.66935 23.8192 6.83387C23.6803 6.99597 23.5054 7.12419 23.2947 7.21855C23.0839 7.31048 22.8361 7.35645 22.5513 7.35645C22.3359 7.35645 22.1286 7.32379 21.9294 7.25847C21.7326 7.19073 21.5554 7.09274 21.3979 6.96452C21.2404 6.83387 21.1142 6.67419 21.0192 6.48548C20.9266 6.29677 20.8757 6.08024 20.8664 5.83589H21.7731C21.7893 5.99798 21.831 6.13589 21.8982 6.2496C21.9653 6.36331 22.0533 6.4504 22.1622 6.51089C22.2733 6.57137 22.4019 6.60161 22.5478 6.60161C22.6798 6.60161 22.7933 6.57621 22.8882 6.5254C22.9855 6.47218 23.0654 6.39839 23.1279 6.30403C23.1905 6.20968 23.2368 6.09839 23.2669 5.97016C23.297 5.84194 23.3121 5.70161 23.3121 5.54919C23.3121 5.40161 23.2947 5.26734 23.2599 5.14637C23.2252 5.02298 23.1719 4.91653 23.1001 4.82702C23.0283 4.7375 22.938 4.66855 22.8292 4.62016C22.7226 4.57177 22.5976 4.54758 22.454 4.54758C22.2618 4.54758 22.1135 4.57782 22.0093 4.63831C21.9074 4.69879 21.8171 4.77016 21.7384 4.85242Z" fill="white"/>
<path d="M19.5732 8.54889V10.4995H19V8.04536H19.5406L19.5732 8.54889ZM19.4885 9.18397H19.3127C19.3127 9.0131 19.3322 8.85585 19.3713 8.7122C19.4118 8.56855 19.4712 8.4438 19.5493 8.33795C19.6275 8.23059 19.7237 8.14743 19.8381 8.08846C19.9539 8.02949 20.0878 8 20.2398 8C20.3454 8 20.4424 8.01663 20.5307 8.0499C20.619 8.08165 20.695 8.13231 20.7587 8.20187C20.8238 8.26991 20.8738 8.35912 20.9085 8.46951C20.9432 8.57838 20.9606 8.70917 20.9606 8.8619V10.4995H20.3874V8.92314C20.3874 8.80822 20.3715 8.71825 20.3396 8.65323C20.3092 8.58821 20.2651 8.54284 20.2072 8.51714C20.1493 8.48992 20.0798 8.47631 19.9988 8.47631C19.909 8.47631 19.8316 8.49521 19.7664 8.53301C19.7028 8.5693 19.6499 8.61996 19.6079 8.68498C19.5674 8.75 19.537 8.82485 19.5167 8.90953C19.4979 8.9942 19.4885 9.08569 19.4885 9.18397ZM20.9172 9.07283L20.6805 9.1182C20.682 8.96396 20.7022 8.81956 20.7413 8.68498C20.7804 8.54889 20.8376 8.43019 20.9128 8.32888C20.9896 8.22606 21.0844 8.14592 21.1973 8.08846C21.3116 8.02949 21.4433 8 21.5924 8C21.7082 8 21.8124 8.01739 21.9051 8.05217C21.9992 8.08543 22.0795 8.13911 22.1461 8.21321C22.2127 8.28579 22.2633 8.38029 22.2981 8.49672C22.3343 8.61316 22.3524 8.75529 22.3524 8.92314V10.4995H21.7748V8.92087C21.7748 8.80141 21.7589 8.70993 21.727 8.64642C21.6967 8.58291 21.6525 8.53906 21.5946 8.51487C21.5367 8.48916 21.4687 8.47631 21.3905 8.47631C21.3109 8.47631 21.2414 8.49219 21.1821 8.52394C21.1242 8.55418 21.075 8.59652 21.0344 8.65096C20.9953 8.70539 20.9657 8.7689 20.9454 8.84148C20.9266 8.91255 20.9172 8.98967 20.9172 9.07283Z" fill="white"/>
<path d="M23.4749 8.04536V10.4995H22.8995V8.04536H23.4749Z" fill="white"/>
<path d="M24.5844 8.5693V10.4995H24.0112V8.04536H24.5496L24.5844 8.5693ZM24.4932 9.18397H24.3238C24.3253 9.00554 24.3484 8.84375 24.3933 8.69859C24.4382 8.55343 24.5011 8.42868 24.5822 8.32434C24.6647 8.22001 24.7624 8.13987 24.8753 8.08392C24.9882 8.02797 25.1141 8 25.2531 8C25.366 8 25.4681 8.01663 25.5592 8.0499C25.6504 8.08317 25.7286 8.13609 25.7937 8.20867C25.8603 8.28125 25.911 8.37651 25.9457 8.49446C25.9819 8.61089 26 8.75454 26 8.9254V10.4995H25.4225V8.92087C25.4225 8.80897 25.4065 8.72051 25.3747 8.65549C25.3443 8.59047 25.2994 8.54435 25.2401 8.51714C25.1822 8.48992 25.1105 8.47631 25.0251 8.47631C24.9368 8.47631 24.8594 8.49521 24.7928 8.53301C24.7277 8.5693 24.6727 8.61996 24.6278 8.68498C24.5844 8.75 24.5511 8.82485 24.5279 8.90953C24.5048 8.9942 24.4932 9.08569 24.4932 9.18397Z" fill="white"/>
</svg>
