<svg width="52" height="37" viewBox="0 0 52 37" fill="none" xmlns="http://www.w3.org/2000/svg">
<path d="M7.81289 18.8455V22.1453C7.81289 23.2499 8.70832 24.1453 9.81289 24.1453H11.693M7.81289 18.8455V12.7191C7.81289 11.6145 8.70832 10.7191 9.81289 10.7191H40.678C41.7825 10.7191 42.678 11.6145 42.678 12.7191V18.8455M7.81289 18.8455H42.678M42.678 18.8455V22.1453C42.678 23.2499 41.7825 24.1453 40.678 24.1453H39.1506M11.693 24.1453H39.1506M11.693 24.1453C11.0903 26.261 10.8605 27.7993 7.46014 31.9184H12.178M39.1506 24.1453C39.778 27.749 40.3508 29.4024 42.678 31.9184H37.9601M20.3512 31.9184C20.5717 31.2117 21.0126 29.1625 21.0126 28.0318M20.3512 31.9184H12.178M20.3512 31.9184H29.7869M12.178 31.9184C12.9569 31.094 14.5148 29.1625 14.5148 28.0318M29.7869 31.9184C29.4488 30.8584 28.7728 28.5972 28.7728 28.0318M29.7869 31.9184H37.9601M37.9601 31.9184C37.2988 31.094 35.976 29.1625 35.976 28.0318M7.27445 2.8421C6.77175 2.50641 6.90752 1.98799 7.22386 1.52359C7.56422 1.02392 8.28014 1.12313 8.6425 1.60709V1.60709C8.88502 1.93098 8.94008 2.38337 8.65127 2.66676C8.31717 2.99459 7.83144 3.21404 7.27445 2.8421ZM3.02312 32.9368C1.96683 32.4077 2.06377 34.1065 2.27329 35.1955C2.30082 35.3385 2.29965 35.5054 2.40872 35.602C2.58534 35.7584 3.05141 35.8227 4.08133 35.41C5.845 34.7034 4.43406 33.6434 3.02312 32.9368ZM1.66786 26.2652C0.962394 28.0318 0.609662 28.7385 1.66786 28.7385C2.72607 28.7385 2.02058 29.7985 3.43153 28.0318C4.84248 26.2652 5.90069 26.2652 4.84248 24.8519C2.5373 21.7733 3.28809 22.2079 1.66786 26.2652ZM44.9986 26.9719C44.9986 25.5586 45.7041 25.2053 46.4095 24.1453C47.115 23.0853 46.0568 22.732 47.115 21.6721C48.1732 20.6121 48.5259 20.6121 49.2314 19.9054C52.1131 17.019 50.6165 20.6569 50.5737 23.0853C50.545 24.7102 51.5853 26.804 49.5423 28.0318C47.0359 29.5381 44.9986 29.8236 44.9986 26.9719ZM40.1346 2.50956C38.8006 1.84145 37.782 3.70004 37.3767 5.09919C37.3313 5.25601 37.3071 5.42326 37.3727 5.57278C37.5034 5.87085 37.8733 6.3235 38.7237 6.74942C40.1346 7.45606 39.7819 6.04277 41.1928 4.62949C42.6038 3.2162 41.5456 3.2162 40.1346 2.50956ZM47.115 15.6656C46.7969 15.1876 46.6222 15.2126 46.4616 15.4165C45.9932 16.0112 45.6787 16.8581 45.8407 17.5976C45.946 18.0784 46.1234 18.5588 46.4095 18.8455C47.115 19.5521 47.115 18.8455 48.1732 17.4322C49.2314 16.0189 47.8205 16.7256 47.115 15.6656Z" stroke="white" stroke-linecap="round" stroke-linejoin="round"/>
</svg>
