<svg width="36" height="52" viewBox="0 0 36 52" fill="none" xmlns="http://www.w3.org/2000/svg">
<path d="M15.8108 19.1592L14.7352 18.8907C14.1994 18.7569 13.6566 19.0829 13.5228 19.6187L7.36791 44.2732C7.23414 44.809 7.56008 45.3519 8.09592 45.4856L20.4758 48.5762C21.0117 48.71 21.5545 48.384 21.6883 47.8482L27.8431 23.1937C27.9769 22.6579 27.651 22.115 27.1151 21.9813L26.0396 21.7128M15.8108 19.1592L16.59 16.0379C16.7238 15.502 17.2666 15.1761 17.8024 15.3099L18.878 15.5784M15.8108 19.1592L26.0396 21.7128M18.878 15.5784L19.7008 12.2822C19.8163 11.8198 19.5892 11.3401 19.1584 11.1361L15.7813 9.53788C15.3505 9.33396 15.1234 8.85427 15.2389 8.39178L15.5642 7.08875C15.698 6.55291 16.2408 6.22697 16.7766 6.36074L26.0879 8.68525C26.6237 8.81902 26.9497 9.36185 26.8159 9.89769L25.0153 17.1105M18.878 15.5784L25.0153 17.1105M25.0153 17.1105L26.0908 17.379C26.6266 17.5128 26.9526 18.0556 26.8188 18.5915L26.0396 21.7128" stroke="white"/>
<path d="M34.8057 11.5572C35.5837 7.44507 33.9863 2.94805 27.6553 1.37804" stroke="white" stroke-linecap="round" stroke-linejoin="round"/>
<path d="M1.10642 44.049C0.561822 46.9275 1.68002 50.0754 6.11173 51.1744" stroke="white" stroke-linecap="round" stroke-linejoin="round"/>
<path d="M31.9997 11.1656C32.4281 8.01885 31.0412 4.67352 26.1819 3.73194" stroke="white" stroke-linecap="round" stroke-linejoin="round"/>
<path d="M3.31247 43.3541C3.01261 45.5568 3.98342 47.8986 7.38498 48.5577" stroke="white" stroke-linecap="round" stroke-linejoin="round"/>
</svg>
