<svg width="64" height="52" viewBox="0 0 64 52" fill="none" xmlns="http://www.w3.org/2000/svg">
<path d="M8.66424 24.4482C8.55666 24.2286 8.41655 24.0322 8.34034 23.7924C7.92731 22.496 8.04666 21.0839 8.67459 19.8177C9.30402 18.5521 10.3662 17.5846 11.6686 17.0921C12.1607 16.9052 12.6671 16.8235 13.1763 16.7914M8.66424 24.4482C7.83729 25.6631 7.55451 27.1629 7.98994 28.5335C8.26514 29.3987 8.78179 30.1276 9.47774 30.6506C9.70763 30.8233 9.9575 30.9734 10.2227 31.0992C10.7983 31.3693 11.4174 31.4943 12.0455 31.4955M8.66424 24.4482C9.22782 24.8717 9.47543 26.5567 11.9804 27.0549M12.0455 31.4955C12.3651 32.058 12.7554 32.5622 13.2544 32.9372C14.5801 33.9334 16.424 34.2218 18.183 33.5569C19.9837 32.8752 21.2624 31.3404 21.6968 29.5488M12.0455 31.4955C13.7954 31.7057 15.5156 30.0854 16.0191 29.3229M21.6968 29.5488C21.9292 29.5053 22.162 29.4685 22.3917 29.3819C23.4202 28.9925 24.2621 28.2275 24.7585 27.2259C25.1558 26.424 25.2815 25.5468 25.1342 24.6449C26.7493 23.3879 31.9443 19.3443 32.0978 19.2257C32.4251 18.9751 32.5689 18.5446 32.4479 18.1648L32.0666 16.9673C32.0128 16.7957 31.9068 16.6466 31.7657 16.5406C31.2988 16.1897 23.4516 16.7843 21.0809 16.9721C20.6733 16.0307 19.953 15.2828 19.0229 14.8482C17.9564 14.347 16.7378 14.3107 15.5938 14.743C14.5756 15.1278 13.7403 15.8558 13.1763 16.7914M21.6968 29.5488C21.2515 29.4205 20.0538 29.9394 18.6424 28.8788C18.1807 28.5319 17.7936 28.0749 17.5266 27.5234M13.1763 16.7914C13.111 17.4143 11.7157 19.3006 12.6676 20.6348" stroke="white" stroke-linecap="round" stroke-linejoin="round"/>
<path d="M16.616 26.6906C16.0179 26.5798 15.4586 26.3282 14.9824 25.9704C14.4191 25.5471 13.9721 24.9769 13.7068 24.3139C13.3575 23.4425 13.3682 22.5234 13.7341 21.7261" stroke="white" stroke-linecap="round" stroke-linejoin="round"/>
<path d="M23.2791 8.0062L23.2791 8.00617C24.2805 6.67359 26.1807 6.40369 27.5139 7.40553C28.8462 8.40674 29.1159 10.3071 28.1144 11.6397C27.113 12.9724 25.2127 13.2421 23.8803 12.2409C22.5471 11.239 22.2776 9.33867 23.2791 8.0062Z" stroke="white" stroke-linecap="round" stroke-linejoin="round"/>
<path d="M31.8214 29.818C30.9984 29.1995 29.8245 29.3661 29.2055 30.1898C28.5869 31.0129 28.7534 32.1869 29.5765 32.8055C30.3998 33.4242 31.5746 33.2577 32.193 32.4348L31.8214 29.818ZM31.8214 29.818C32.6447 30.4366 32.8117 31.6112 32.193 32.4348L31.8214 29.818Z" stroke="white"/>
<path d="M38.9674 25.1411L38.197 25.3407C37.6623 25.4792 37.3412 26.0248 37.4797 26.5595L42.8322 47.223C42.9707 47.7577 43.5164 48.0788 44.051 47.9403L54.284 45.2897C54.8186 45.1512 55.1397 44.6055 55.0013 44.0709L49.6488 23.4073C49.5103 22.8727 48.9646 22.5515 48.4299 22.69L47.6596 22.8896M38.9674 25.1411L38.3175 22.6323C38.179 22.0977 38.5002 21.552 39.0348 21.4135L39.8052 21.2139M38.9674 25.1411L47.6596 22.8896M39.8052 21.2139L39.1101 18.5307C38.9906 18.0692 38.562 17.7563 38.0861 17.783L35.1518 17.9477C34.6759 17.9744 34.2473 17.6615 34.1278 17.2L33.9086 16.354C33.7701 15.8194 34.0913 15.2737 34.6259 15.1352L42.2512 13.16C42.7859 13.0215 43.3315 13.3427 43.47 13.8773L45.0205 19.863M39.8052 21.2139L45.0205 19.863M45.0205 19.863L45.7909 19.6635C46.3255 19.525 46.8712 19.8461 47.0097 20.3807L47.6596 22.8896" stroke="white"/>
</svg>
