<svg width="43" height="47" viewBox="0 0 43 47" fill="none" xmlns="http://www.w3.org/2000/svg">
<path d="M21.25 5.22217C10.0662 5.22217 1 14.2884 1 25.4722C1 36.6559 10.0662 45.7222 21.25 45.7222C32.4338 45.7222 41.5 36.6559 41.5 25.4722C41.5 22.4108 40.8207 19.5081 39.6046 16.9066M21.25 5.22217V2.22217M21.25 5.22217C22.7966 5.22217 24.3027 5.39556 25.75 5.72395M21.25 2.22217H17.5M21.25 2.22217H25M7 11.0847L4.75 8.97217M21.25 8.22217V11.2222M3.25 25.4722H6.25M38.5 25.4722H35.5M21.25 42.7222V39.7222M21.25 14.2222V25.4722L15.25 31.4722" stroke="white" stroke-linecap="round" stroke-linejoin="round"/>
<circle cx="33.25" cy="10.4722" r="9.25" stroke="white"/>
<path d="M32.1075 8.0008L31.008 7.72318L31.4301 3.72217H35.6041V4.91431H32.5713L32.3733 6.76511C32.481 6.69616 32.6373 6.62721 32.8423 6.55826C33.0507 6.48568 33.2852 6.44939 33.5457 6.44939C33.907 6.44939 34.2301 6.51108 34.515 6.63447C34.7998 6.75422 35.0413 6.92842 35.2393 7.15705C35.4408 7.38568 35.5919 7.66511 35.6926 7.99535C35.7969 8.32197 35.849 8.69213 35.849 9.10584C35.849 9.46874 35.7969 9.80987 35.6926 10.1292C35.5919 10.445 35.4373 10.7262 35.2289 10.973C35.0204 11.2161 34.7582 11.4085 34.442 11.55C34.1259 11.6879 33.7542 11.7568 33.3269 11.7568C33.0038 11.7568 32.6929 11.7079 32.3941 11.6099C32.0988 11.5083 31.8331 11.3613 31.5969 11.1689C31.3606 10.973 31.1713 10.7335 31.0289 10.4504C30.8899 10.1673 30.8135 9.84253 30.7996 9.476H32.1596C32.184 9.71914 32.2465 9.926 32.3472 10.0966C32.448 10.2671 32.58 10.3978 32.7433 10.4885C32.91 10.5792 33.1028 10.6246 33.3217 10.6246C33.5197 10.6246 33.6899 10.5865 33.8323 10.5103C33.9783 10.4304 34.0981 10.3197 34.1919 10.1782C34.2857 10.0367 34.3552 9.86975 34.4003 9.67741C34.4455 9.48507 34.4681 9.27459 34.4681 9.04596C34.4681 8.82459 34.442 8.62318 34.3899 8.44172C34.3378 8.25664 34.2579 8.09697 34.1502 7.96269C34.0425 7.82842 33.907 7.72499 33.7438 7.65241C33.584 7.57983 33.3964 7.54354 33.181 7.54354C32.8926 7.54354 32.6703 7.5889 32.514 7.67963C32.3611 7.77035 32.2256 7.87741 32.1075 8.0008Z" fill="white"/>
<path d="M28.8598 13.5455V16.4714H28V12.7902H28.8109L28.8598 13.5455ZM28.7328 14.4981H28.469C28.469 14.2418 28.4983 14.0059 28.5569 13.7905C28.6177 13.575 28.7067 13.3879 28.824 13.2291C28.9412 13.0681 29.0856 12.9433 29.2571 12.8549C29.4308 12.7664 29.6317 12.7222 29.8596 12.7222C30.0181 12.7222 30.1636 12.7471 30.2961 12.797C30.4285 12.8446 30.5425 12.9206 30.638 13.025C30.7357 13.127 30.8106 13.2609 30.8627 13.4264C30.9149 13.5897 30.9409 13.7859 30.9409 14.015V16.4714H30.0811V14.1069C30.0811 13.9345 30.0572 13.7995 30.0095 13.702C29.9639 13.6045 29.8976 13.5364 29.8108 13.4979C29.7239 13.457 29.6197 13.4366 29.4981 13.4366C29.3635 13.4366 29.2474 13.465 29.1497 13.5217C29.0541 13.5761 28.9749 13.6521 28.9119 13.7496C28.8511 13.8472 28.8055 13.9594 28.7751 14.0865C28.7469 14.2135 28.7328 14.3507 28.7328 14.4981ZM30.8758 14.3314L30.5208 14.3995C30.523 14.1681 30.5533 13.9515 30.612 13.7496C30.6706 13.5455 30.7564 13.3675 30.8693 13.2155C30.9843 13.0613 31.1266 12.941 31.2959 12.8549C31.4674 12.7664 31.665 12.7222 31.8886 12.7222C32.0623 12.7222 32.2187 12.7483 32.3576 12.8004C32.4988 12.8503 32.6193 12.9308 32.7191 13.042C32.819 13.1508 32.895 13.2926 32.9471 13.4673C33.0014 13.6419 33.0285 13.8551 33.0285 14.1069V16.4714H32.1622V14.1035C32.1622 13.9243 32.1383 13.7871 32.0906 13.6918C32.045 13.5965 31.9788 13.5308 31.8919 13.4945C31.8051 13.4559 31.703 13.4366 31.5858 13.4366C31.4663 13.4366 31.3621 13.4604 31.2731 13.5081C31.1863 13.5534 31.1124 13.617 31.0516 13.6986C30.993 13.7803 30.9485 13.8755 30.9181 13.9844C30.8899 14.091 30.8758 14.2067 30.8758 14.3314Z" fill="white"/>
<path d="M34.7123 12.7902V16.4714H33.8493V12.7902H34.7123Z" fill="white"/>
<path d="M36.3766 13.5761V16.4714H35.5167V12.7902H36.3244L36.3766 13.5761ZM36.2398 14.4981H35.9857C35.9879 14.2305 36.0226 13.9878 36.09 13.7701C36.1573 13.5523 36.2517 13.3652 36.3733 13.2087C36.4971 13.0522 36.6436 12.932 36.813 12.8481C36.9823 12.7641 37.1712 12.7222 37.3797 12.7222C37.549 12.7222 37.7021 12.7471 37.8389 12.797C37.9757 12.8469 38.0929 12.9263 38.1906 13.0352C38.2905 13.144 38.3665 13.2869 38.4186 13.4639C38.4729 13.6385 38.5 13.854 38.5 14.1103V16.4714H37.6337V14.1035C37.6337 13.9356 37.6098 13.8029 37.562 13.7054C37.5164 13.6079 37.4491 13.5387 37.3601 13.4979C37.2733 13.457 37.1658 13.4366 37.0377 13.4366C36.9052 13.4366 36.7891 13.465 36.6892 13.5217C36.5915 13.5761 36.509 13.6521 36.4417 13.7496C36.3766 13.8472 36.3266 13.9594 36.2919 14.0865C36.2571 14.2135 36.2398 14.3507 36.2398 14.4981Z" fill="white"/>
</svg>
