<svg width="44" height="45" viewBox="0 0 44 45" fill="none" xmlns="http://www.w3.org/2000/svg">
<path d="M11.5267 21.6296C11.5267 21.6296 5.74122 21.017 5.27567 25.6439C4.81013 30.2709 7.66485 31.9694 8.96623 31.9694M8.96623 31.9694C10.712 32.5666 12.4432 31.9694 13.6378 30.5844M8.96623 31.9694C8.61705 34.8392 10.2422 36.3774 11.5267 37.1547C13.082 38.0958 15.6001 37.592 16.6476 36.1863M16.6476 36.1863C16.9192 35.1711 17.8189 32.9065 20.2081 32.3763M16.6476 36.1863C16.57 38.3338 17.2503 43.7202 25.2995 43.7202C33.3487 43.7202 34.9783 36.1424 34.3963 32.9797M34.3963 32.9797C36.2943 33.0764 38.3458 33.046 40.6229 32.9065C38.2479 27.6658 36.9989 24.0539 36.724 18.7218M34.3963 32.9797C34.4545 32.5551 33.4497 31.3347 32.7513 27.0006M34.3963 32.9797C31.3672 32.8255 28.7295 32.3479 26.1912 31.4751M18.8007 27.7425C17.3075 26.7688 15.305 24.7657 13.6378 23.4769C18.7971 20.3542 22.2355 18.7299 25.2995 14.5744M18.8007 27.7425C19.0917 27.6353 21.4488 26.1812 23.1946 24.0141M18.8007 27.7425C21.3493 29.4043 23.7233 30.6265 26.1912 31.4751M26.1912 31.4751L27.937 25.6439M25.2995 14.5744L36.724 18.7218M25.2995 14.5744V14.5744C24.3791 14.2191 23.9232 13.1831 24.283 12.2645L25.2132 9.88889M36.724 18.7218V18.7218C37.4572 18.9845 38.2626 18.5903 38.5049 17.8502L39.4591 14.9367M25.2132 9.88889L26.833 5.75239C27.2228 4.757 28.3264 4.24409 29.3386 4.58791L39.6227 8.08127C40.6605 8.43378 41.2213 9.55587 40.8801 10.5974L39.4591 14.9367M25.2132 9.88889L39.4591 14.9367" stroke="white" stroke-linecap="round" stroke-linejoin="round"/>
<circle cx="3.26875" cy="5.50252" r="2.38919" stroke="white" stroke-linecap="round" stroke-linejoin="round"/>
<circle cx="15.9076" cy="14.9398" r="2.84314" stroke="white" stroke-linecap="round" stroke-linejoin="round"/>
<circle cx="16.027" cy="3.11333" r="2.38919" stroke="white" stroke-linecap="round" stroke-linejoin="round"/>
<circle cx="41.0896" cy="23.0631" r="2.03081" stroke="white" stroke-linecap="round" stroke-linejoin="round"/>
<ellipse cx="4.53502" cy="16.9706" rx="2.03081" ry="1.62465" stroke="white" stroke-linecap="round" stroke-linejoin="round"/>
</svg>
