<svg width="42" height="43" viewBox="0 0 42 43" fill="none" xmlns="http://www.w3.org/2000/svg">
<path d="M7.65072 16.8613L7.65072 16.8613C8.05582 14.7503 8.40951 13.3843 9.3062 12.4876C10.2029 11.5909 11.5689 11.2372 13.68 10.8321M7.65072 16.8613L13.7742 11.3232M7.65072 16.8613C7.63559 16.9402 7.56663 16.9971 7.4865 16.9971C7.40618 16.9971 7.33726 16.9401 7.32215 16.8613C6.91712 14.7502 6.56343 13.3842 5.66671 12.4875C4.77001 11.5909 3.40394 11.2372 1.29295 10.8321L7.65072 16.8613ZM13.68 10.8321L13.7742 11.3232M13.68 10.8321C13.6799 10.8321 13.6799 10.8321 13.6798 10.8321L13.7742 11.3232M13.68 10.8321C13.759 10.8168 13.8158 10.7479 13.8158 10.6678C13.8158 10.5875 13.7587 10.5185 13.68 10.5034M13.7742 11.3232C14.0886 11.2627 14.3158 10.9878 14.3158 10.6678C14.3158 10.3477 14.0885 10.0727 13.7742 10.0124M13.68 10.5034L13.7742 10.0124M13.68 10.5034C13.68 10.5034 13.68 10.5034 13.68 10.5034L13.7742 10.0124M13.68 10.5034C11.5689 10.0983 10.2029 9.74463 9.3062 8.84795C8.40951 7.95127 8.05582 6.58524 7.65072 4.47422M13.7742 10.0124L1.29289 10.8321C1.21415 10.817 1.15711 10.7479 1.15711 10.6678C1.15711 10.5878 1.2139 10.5187 1.29289 10.5034M7.65072 4.47422L8.14176 4.37999L7.65072 4.47422ZM7.65072 4.47422C7.63559 4.39539 7.56654 4.33844 7.4865 4.33844C7.40627 4.33844 7.33726 4.39547 7.32214 4.47424C6.91711 6.58525 6.56346 7.95126 5.66676 8.84795C4.77007 9.74464 3.40399 10.0983 1.29289 10.5034M1.29289 10.5034L1.19867 10.0124L1.29311 10.5034C1.29304 10.5034 1.29296 10.5034 1.29289 10.5034Z" stroke="white"/>
<path d="M34.2815 8.42562C34.2824 8.43022 34.2864 8.43343 34.2909 8.43343C34.2954 8.43343 34.2993 8.4303 34.3002 8.42565C34.3002 8.42564 34.3002 8.42563 34.3002 8.42562L34.7913 8.51987C35.2933 5.90337 35.5798 5.61699 38.1962 5.11497L34.2815 8.42562ZM34.2815 8.42562C34.156 7.77147 34.0384 7.23174 33.8874 6.79218M34.2815 8.42562L33.8874 6.79218M34.3002 0.803351C34.2993 0.798745 34.2954 0.795542 34.2909 0.795542C34.2864 0.795542 34.2824 0.798744 34.2815 0.80335C34.156 1.4575 34.0384 1.99723 33.8874 2.43679C33.7342 2.88268 33.5369 3.25553 33.2344 3.55799C32.9319 3.86046 32.5591 4.05779 32.1132 4.21099C31.6737 4.362 31.134 4.4795 30.4799 4.605C30.4751 4.60592 30.4719 4.60997 30.4719 4.61448C30.4719 4.61906 30.4752 4.62306 30.4797 4.62393L34.3002 0.803351ZM34.3002 0.803351C34.4258 1.4575 34.5433 1.99722 34.6943 2.43678M34.3002 0.803351L34.6943 2.43678M34.6943 2.43678C34.8475 2.88269 35.0448 3.25553 35.3473 3.558M34.6943 2.43678L35.3473 3.558M35.3473 3.558C35.6498 3.86046 36.0226 4.05779 36.4685 4.21099M35.3473 3.558L36.4685 4.21099M36.4685 4.21099C36.9081 4.36201 37.4478 4.47952 38.102 4.60503L36.4685 4.21099ZM33.8874 6.79218C33.7342 6.34628 33.5369 5.97344 33.2344 5.67098M33.8874 6.79218L33.2344 5.67098M33.2344 5.67098C32.9319 5.36851 32.5591 5.17118 32.1132 5.01798M33.2344 5.67098L32.1132 5.01798M32.1132 5.01798C31.6736 4.86696 31.1339 4.74945 30.4797 4.62394L32.1132 5.01798Z" stroke="white"/>
<path d="M34.7767 41.815L34.449 41.8779C33.9059 39.0483 33.5583 38.7006 30.7287 38.1577C30.5715 38.1275 30.4578 37.9899 30.4578 37.8299C30.4578 37.6698 30.5714 37.5323 30.7287 37.502C33.5583 36.9591 33.906 36.6114 34.449 33.7818L34.7767 33.8447L34.6135 33.876C34.6135 33.876 34.6135 33.876 34.6135 33.876C34.6678 34.1591 34.721 34.4243 34.7768 34.6726M34.7768 34.6726C34.56 35.6382 34.3053 36.3476 33.7999 36.853C33.2945 37.3584 32.585 37.6131 31.6193 37.8299M34.7768 34.6726C34.9935 35.6382 35.2483 36.3476 35.7537 36.853C36.2591 37.3584 36.9685 37.6131 37.9342 37.8298C36.9685 38.0466 36.259 38.3013 35.7536 38.8067C35.2482 39.3121 34.9935 40.0215 34.7767 40.9871C34.56 40.0215 34.3052 39.3121 33.7998 38.8067C33.2944 38.3013 32.585 38.0466 31.6193 37.8299M31.6193 37.8299C31.3711 37.7741 31.1059 37.7209 30.8229 37.6666C30.8229 37.6666 30.8229 37.6666 30.8229 37.6666L30.7917 37.8295L30.7287 37.5021L30.7916 37.8299L30.7287 38.1575L30.7916 37.8299L30.8229 37.9931C30.823 37.9931 30.823 37.993 30.8231 37.993C31.106 37.9387 31.3711 37.8856 31.6193 37.8299Z" stroke="white"/>
<path d="M7.87109 21.1885H4.85281C2.64367 21.1885 0.852808 22.9793 0.852808 25.1885V27.6669M7.87109 21.1885H10.5842C10.9291 21.1885 11.2681 21.0993 11.5683 20.9296L21.9612 15.0553C22.8517 14.552 23.9791 14.8093 24.7366 15.4966C26.0439 16.6827 28.0957 17.9493 30.5455 17.9493C32.7742 17.9493 35.1227 16.901 36.8955 15.8188C38.0726 15.1002 39.7032 15.5194 40.099 16.8405C40.154 17.0238 40.2088 17.2117 40.2632 17.4036M7.87109 21.1885V21.1885C7.87109 22.9774 9.32133 24.4277 11.1103 24.4277H19.9077C21.0122 24.4277 21.9077 25.3231 21.9077 26.4277V26.5871M0.852808 27.6669V27.6669C0.852808 29.754 2.54476 31.446 4.63188 31.446H39.3429C40.4475 31.446 41.3429 30.5511 41.3429 29.4466C41.3429 28.5025 41.3429 27.3365 41.3429 26.0473M0.852808 27.6669H16.8508C16.9825 27.6669 17.1139 27.6539 17.243 27.628L24.9527 26.0861C25.0818 26.0603 25.2132 26.0473 25.3449 26.0473H41.3429M41.3429 26.0473C41.3429 25.3576 41.3429 24.6328 41.3429 23.8878C41.3429 21.8252 40.8298 19.4034 40.2632 17.4036M20.6618 15.7898C21.3816 17.4094 24.499 21.1885 30.5455 21.1885C36.5921 21.1885 39.5433 18.6652 40.2632 17.4036M12.19 18.4891L13.8096 21.1885M14.3495 17.4094L15.9691 20.1087M16.509 15.7898L18.1286 18.4891" stroke="white" stroke-linecap="round"/>
</svg>
